<?xml version="1.0" encoding="UTF-8" standalone="no"?><!-- Created with Inkscape (http://www.inkscape.org/) --><svg xmlns:dc="http://purl.org/dc/elements/1.1/" xmlns:cc="http://creativecommons.org/ns#" xmlns:rdf="http://www.w3.org/1999/02/22-rdf-syntax-ns#" xmlns:svg="http://www.w3.org/2000/svg" xmlns="http://www.w3.org/2000/svg" version="1.1" width="128" height="128" id="svg10210" viewBox="-5.15551 0 74.090546 74.090546"><defs id="defs10212" /><metadata id="metadata10215"><rdf:RDF><cc:Work rdf:about=""><dc:format>image/svg+xml</dc:format><dc:type rdf:resource="http://purl.org/dc/dcmitype/StillImage" /><dc:title></dc:title></cc:Work></rdf:RDF></metadata><g transform="translate(-426.92955,-425.33668)" id="layer1"><g transform="matrix(0.03543307,0,0,0.03543307,-149.84996,-26.470394)" id="g805"><g id="id144"><path d="m 16278,14842 0,-1827 c 0,-103 82,-185 185,-185 l 0,0 742,0 c 103,0 185,82 185,185 l 0,0 0,1827 -1112,0 z" id="path808" style="fill:#ffffff;stroke:none" /></g></g><g transform="matrix(0.03543307,0,0,0.03543307,-149.84996,-26.470394)" id="g810"><g id="id145"><path d="m 17205,12910 -743,0 c -58,0 -105,47 -105,105 l 0,0 0,1748 954,0 0,-1748 c 0,-58 -48,-105 -106,-105 z m -79,1641 -584,0 0,-79 584,0 0,79 z m 0,-238 -584,0 0,-80 584,0 0,80 z m 0,-1086 -584,0 0,-79 584,0 0,79 z" id="path813" style="fill:#525352;stroke:none" /></g></g><g transform="matrix(0.03543307,0,0,0.03543307,-149.84996,-26.470394)" id="g815"><g id="id146"><path d="m 16992,13625 1086,0 0,-874 -1086,0 0,874 z" id="path818" style="fill:#ffffff;stroke:none" /></g></g><g transform="matrix(0.03543307,0,0,0.03543307,-149.84996,-26.470394)" id="g820"><g id="id147"><path d="m 17072,12830 0,716 927,0 0,-716 -927,0 z m 874,663 -822,0 0,-611 822,0 0,611 z" id="path823" style="fill:#515251;stroke:none" /></g></g><g transform="matrix(0.03543307,0,0,0.03543307,-149.84996,-26.470394)" id="g825"><g id="id148"><path d="m 17733,13123 133,0 0,-160 -133,0 0,160 z" id="path828" style="fill:#515251;stroke:none" /></g></g><g transform="matrix(0.03543307,0,0,0.03543307,-149.84996,-26.470394)" id="g830"><g id="id149"><path d="m 17257,13228 319,0 0,-54 -319,0 0,54 z" id="path833" style="fill:#515251;stroke:none" /></g></g><g transform="matrix(0.03543307,0,0,0.03543307,-149.84996,-26.470394)" id="g835"><g id="id150"><path d="m 17257,13361 451,0 0,-54 -451,0 0,54 z" id="path838" style="fill:#515251;stroke:none" /></g></g></g></svg>
