<?xml version="1.0" encoding="UTF-8" standalone="no"?><!-- Created with Inkscape (http://www.inkscape.org/) --><svg xmlns:dc="http://purl.org/dc/elements/1.1/" xmlns:cc="http://creativecommons.org/ns#" xmlns:rdf="http://www.w3.org/1999/02/22-rdf-syntax-ns#" xmlns:svg="http://www.w3.org/2000/svg" xmlns="http://www.w3.org/2000/svg" version="1.1" width="128" height="128" id="svg10210" viewBox="0 -17.362204 79.334641 79.334641"><defs id="defs10212" /><metadata id="metadata10215"><rdf:RDF><cc:Work rdf:about=""><dc:format>image/svg+xml</dc:format><dc:type rdf:resource="http://purl.org/dc/dcmitype/StillImage" /><dc:title></dc:title></cc:Work></rdf:RDF></metadata><g transform="translate(-424.30316,-396.85684)" id="layer1"><g transform="matrix(0.03543307,0,0,0.03543307,318.00395,-421.32818)" id="g2265"><g id="id436"><path d="m 3000,23780 0,-490 c 0,-104 97,-199 203,-199 l 0,0 1555,0 c 106,0 204,95 204,199 l 0,0 0,490 -1962,0 z" id="path2268" style="fill:#ffffff;stroke:none" /></g></g><g transform="matrix(0.03543307,0,0,0.03543307,318.00395,-421.32818)" id="g2270"><g id="id437"><path d="m 4471,23170 -1268,0 c -64,0 -124,60 -124,119 l 0,0 0,411 1800,0 0,-411 c 0,-61 -61,-119 -122,-119 l 0,0 -286,0 z" id="path2273" style="fill:#515050;stroke:none" /></g></g><g transform="matrix(0.03543307,0,0,0.03543307,318.00395,-421.32818)" id="g2275"><g id="id438"><path d="m 3503,23435 0,0 c 0,10 -2,18 -7,26 -5,9 -11,15 -19,20 -9,5 -17,7 -27,7 -10,0 -18,-2 -26,-7 -9,-5 -15,-11 -20,-20 -5,-8 -7,-16 -7,-26 0,-10 2,-18 7,-27 5,-8 11,-14 20,-19 8,-5 16,-7 25,-7 l 0,0 1,0 c 10,0 18,2 27,7 8,5 14,11 19,19 5,9 7,17 7,27 z" id="path2278" style="fill:#ffffff;stroke:none" /></g></g><g transform="matrix(0.03543307,0,0,0.03543307,318.00395,-421.32818)" id="g2280"><g id="id439"><path d="m 3767,23435 0,0 c 0,10 -2,18 -7,26 -5,9 -11,15 -19,20 -9,5 -17,7 -27,7 -10,0 -18,-2 -26,-7 -9,-5 -15,-11 -20,-20 -5,-8 -7,-16 -7,-26 0,-10 2,-18 7,-27 5,-8 11,-14 20,-19 8,-5 16,-7 25,-7 l 0,0 1,0 c 10,0 18,2 27,7 8,5 14,11 19,19 5,9 7,17 7,27 z" id="path2283" style="fill:#ffffff;stroke:none" /></g></g><g transform="matrix(0.03543307,0,0,0.03543307,318.00395,-421.32818)" id="g2285"><g id="id440"><path d="m 4032,23435 0,0 c 0,10 -2,18 -7,26 -5,9 -11,15 -19,20 -9,5 -17,7 -27,7 -10,0 -18,-2 -26,-7 -9,-5 -15,-11 -20,-20 -5,-8 -7,-16 -7,-26 0,-10 2,-18 7,-27 5,-8 11,-14 20,-19 8,-5 16,-7 25,-7 l 0,0 1,0 c 10,0 18,2 27,7 8,5 14,11 19,19 5,9 7,17 7,27 z" id="path2288" style="fill:#ffffff;stroke:none" /></g></g><g transform="matrix(0.03543307,0,0,0.03543307,318.00395,-421.32818)" id="g2290"><g id="id441"><path d="m 4297,23435 0,0 c 0,10 -2,18 -7,26 -5,9 -11,15 -19,20 -9,5 -17,7 -27,7 -10,0 -18,-2 -26,-7 -9,-5 -15,-11 -20,-20 -5,-8 -7,-16 -7,-26 0,-10 2,-18 7,-27 5,-8 11,-14 20,-19 8,-5 16,-7 25,-7 l 0,0 1,0 c 10,0 18,2 27,7 8,5 14,11 19,19 5,9 7,17 7,27 z" id="path2293" style="fill:#ffffff;stroke:none" /></g></g><g transform="matrix(0.03543307,0,0,0.03543307,318.00395,-421.32818)" id="g2295"><g id="id442"><path d="m 4561,23435 0,0 c 0,10 -2,18 -7,26 -5,9 -11,15 -19,20 -9,5 -17,7 -27,7 -10,0 -18,-2 -26,-7 -9,-5 -15,-11 -20,-20 -5,-8 -7,-16 -7,-26 0,-10 2,-18 7,-27 5,-8 11,-14 20,-19 8,-5 16,-7 25,-7 l 0,0 1,0 c 10,0 18,2 27,7 8,5 14,11 19,19 5,9 7,17 7,27 z" id="path2298" style="fill:#ffffff;stroke:none" /></g></g><g transform="matrix(0.03543307,0,0,0.03543307,318.00395,-421.32818)" id="g2300"><g id="id443"><path d="m 4338,24350 c -87,0 -158,-72 -158,-159 l 0,0 0,-742 c 0,-87 71,-158 158,-158 l 0,0 742,0 c 87,0 159,71 159,158 l 0,0 0,742 c 0,87 -72,159 -159,159 l 0,0 -742,0 z" id="path2303" style="fill:#ffffff;stroke:none" /></g></g><g transform="matrix(0.03543307,0,0,0.03543307,318.00395,-421.32818)" id="g2305"><g id="id444"><path d="m 5161,24193 c 0,45 -34,79 -79,79 l 0,0 -743,0 c -45,0 -79,-34 -79,-79 l 0,0 0,-743 c 0,-45 34,-79 79,-79 l 0,0 743,0 c 45,0 79,34 79,79 l 0,0 0,743 z" id="path2308" style="fill:#515050;stroke:none" /></g></g><g transform="matrix(0.03543307,0,0,0.03543307,318.00395,-421.32818)" id="g2310"><g id="id445"><path d="m 4736,23741 0,-176 80,81 0,-81 -107,-105 -106,105 0,81 80,-81 0,176 53,0 z" id="path2313" style="fill:#ffffff;stroke:none" /></g></g><g transform="matrix(0.03543307,0,0,0.03543307,318.00395,-421.32818)" id="g2315"><g id="id446"><path d="m 4683,23900 0,175 -80,-80 0,80 106,106 107,-106 0,-80 -80,80 0,-175 -53,0 z" id="path2318" style="fill:#ffffff;stroke:none" /></g></g><g transform="matrix(0.03543307,0,0,0.03543307,318.00395,-421.32818)" id="g2320"><g id="id447"><path d="m 5080,23847 -176,0 81,80 -81,0 -105,-107 105,-106 81,0 -81,80 176,0 0,53 z" id="path2323" style="fill:#ffffff;stroke:none" /></g></g><g transform="matrix(0.03543307,0,0,0.03543307,318.00395,-421.32818)" id="g2325"><g id="id448"><path d="m 4339,23794 175,0 -80,-80 80,0 106,106 -106,107 -80,0 80,-80 -175,0 0,-53 z" id="path2328" style="fill:#ffffff;stroke:none" /></g></g></g></svg>
