<?xml version="1.0" encoding="UTF-8" standalone="no"?><!-- Created with Inkscape (http://www.inkscape.org/) --><svg width="128" height="128" viewBox="0 0 14.713636 14.713636" version="1.1" id="svg4945" inkscape:version="1.2.2 (732a01da63, 2022-12-09)" sodipodi:docname="switch.svg" xmlns:inkscape="http://www.inkscape.org/namespaces/inkscape" xmlns:sodipodi="http://sodipodi.sourceforge.net/DTD/sodipodi-0.dtd" xmlns="http://www.w3.org/2000/svg" xmlns:svg="http://www.w3.org/2000/svg"><sodipodi:namedview id="namedview4947" pagecolor="#ffffff" bordercolor="#000000" borderopacity="0.25" inkscape:showpageshadow="2" inkscape:pageopacity="0.0" inkscape:pagecheckerboard="0" inkscape:deskcolor="#d1d1d1" inkscape:document-units="mm" showgrid="false" inkscape:zoom="0.89263468" inkscape:cx="241.42015" inkscape:cy="371.93267" inkscape:window-width="2560" inkscape:window-height="1369" inkscape:window-x="1912" inkscape:window-y="-8" inkscape:window-maximized="1" inkscape:current-layer="layer1" /><defs id="defs4942" /><g inkscape:label="Calque 1" inkscape:groupmode="layer" id="layer1" transform="translate(-27.026411,-50.146176)"><g id="g4904" transform="translate(-63.076826,7.4106215)"><g id="g1741"><g id="svg1.layer1-3-4-0" transform="matrix(0.46087851,0,0,0.46087851,-126.0252,-144.73973)" style="text-decoration:none;text-decoration-line:none"><g id="svg1.g2305-0-7-6" transform="matrix(0.03543307,0,0,0.03543307,318.00395,-421.32818)"><g id="svg1.id444-9-7-0"><path style="fill:#515050;stroke:none" d="m 5161,24193 c 0,45 -34,79 -79,79 v 0 h -743 c -45,0 -79,-34 -79,-79 v 0 -743 c 0,-45 34,-79 79,-79 v 0 h 743 c 45,0 79,34 79,79 v 0 z" id="path844-0-0-3" sodipodi:nodetypes="sscsscsscsscs" /></g></g><g id="svg1.g2310-4-1-7" transform="matrix(0.03543307,0,0,0.03543307,318.00395,-421.32818)"><g id="svg1.id445-4-6-8" /></g><g id="svg1.g2315-0-6-9" transform="matrix(0.03543307,0,0,0.03543307,318.00395,-421.32818)"><g id="svg1.id446-3-7-2" /></g><g id="svg1.g2320-9-6-9" transform="matrix(0.03543307,0,0,0.03543307,318.00395,-421.32818)"><g id="svg1.id447-04-1-4" /></g><g id="svg1.g2325-5-2-5" transform="matrix(0.03543307,0,0,0.03543307,318.00395,-421.32818)"><g id="svg1.id448-5-9-9" /></g></g><g id="svg2.g306-4" transform="matrix(0.00711881,0,0,0.00711881,0.27961661,-5.1786339)" style="font-style:normal;font-weight:normal;font-size:12px;font-family:Dialog;text-decoration-line:none;color-interpolation:auto;fill:#ffffff;fill-opacity:1;stroke:#000000;stroke-width:1;stroke-linecap:square;stroke-linejoin:miter;stroke-miterlimit:10;stroke-dasharray:none;stroke-dashoffset:0;stroke-opacity:1;color-rendering:auto;image-rendering:auto;shape-rendering:geometricPrecision;text-rendering:geometricPrecision"><g id="svg2.id53-0" style="fill:#ffffff;fill-opacity:1"><path style="fill:#ffffff;fill-opacity:1;stroke:none" d="m 13515,7153 h -350 -132 l 159,-158 h -133 l -204,211 204,213 h 133 l -159,-159 h 132 350 z" id="path823-2" /></g></g><g id="svg2.g311-7" transform="matrix(0.00711881,0,0,0.00711881,6.096167,-7.8133045)" style="font-style:normal;font-weight:normal;font-size:12px;font-family:Dialog;text-decoration-line:none;color-interpolation:auto;fill:#ffffff;fill-opacity:1;stroke:#000000;stroke-width:1;stroke-linecap:square;stroke-linejoin:miter;stroke-miterlimit:10;stroke-dasharray:none;stroke-dashoffset:0;stroke-opacity:1;color-rendering:auto;image-rendering:auto;shape-rendering:geometricPrecision;text-rendering:geometricPrecision"><g id="svg2.id54-9" style="fill:#ffffff;fill-opacity:1"><path style="fill:#ffffff;fill-opacity:1;stroke:none" d="m 13011,7630 h 339 132 l -158,159 h 132 l 202,-213 -202,-211 h -132 l 158,158 h -132 -339 z" id="path820-6" /></g></g><g id="svg2.g306-9-6" transform="matrix(0.00711881,0,0,0.00711881,0.28210586,2.2107674)" style="font-style:normal;font-weight:normal;font-size:12px;font-family:Dialog;text-decoration-line:none;color-interpolation:auto;fill:#ffffff;fill-opacity:1;stroke:#000000;stroke-width:1;stroke-linecap:square;stroke-linejoin:miter;stroke-miterlimit:10;stroke-dasharray:none;stroke-dashoffset:0;stroke-opacity:1;color-rendering:auto;image-rendering:auto;shape-rendering:geometricPrecision;text-rendering:geometricPrecision"><g id="svg2.id53-8-1" style="fill:#ffffff;fill-opacity:1"><path style="fill:#ffffff;fill-opacity:1;stroke:none" d="m 13515,7153 h -350 -132 l 159,-158 h -133 l -204,211 204,213 h 133 l -159,-159 h 132 350 z" id="path823-8-8" /></g></g><g id="svg2.g311-9-3" transform="matrix(0.00711881,0,0,0.00711881,6.0950161,-0.42293934)" style="font-style:normal;font-weight:normal;font-size:12px;font-family:Dialog;text-decoration-line:none;color-interpolation:auto;fill:#ffffff;fill-opacity:1;stroke:#000000;stroke-width:1;stroke-linecap:square;stroke-linejoin:miter;stroke-miterlimit:10;stroke-dasharray:none;stroke-dashoffset:0;stroke-opacity:1;color-rendering:auto;image-rendering:auto;shape-rendering:geometricPrecision;text-rendering:geometricPrecision"><g id="svg2.id54-3-3" style="fill:#ffffff;fill-opacity:1"><path style="fill:#ffffff;fill-opacity:1;stroke:none" d="m 13011,7630 h 339 132 l -158,159 h 132 l 202,-213 -202,-211 h -132 l 158,158 h -132 -339 z" id="path820-9-3" /></g></g><path id="rect1039" style="fill:#ffffff;fill-opacity:1;stroke-width:0.0499999;stroke-linecap:round;stroke-linejoin:round" transform="rotate(69.542347)" d="m 76.582149,-74.415932 8.605237,-0.01646 v 0.267765 c -0.108123,0.28984 -0.115252,0.307005 -0.190773,0.509449 l -8.67891,0.01646 v -0.06964 c 0.126041,-0.337873 0.164071,-0.438505 0.264446,-0.707575 z" sodipodi:nodetypes="cccccccc" /><path id="rect1039-4" style="fill:#ffffff;fill-opacity:1;stroke-width:0.0499999;stroke-linecap:round;stroke-linejoin:round" transform="matrix(-0.349515,0.93693077,0.93693077,0.349515,0,0)" d="m 8.3514627,108.47824 8.6135463,-0.0126 v 0.25362 c -0.08346,0.22374 -0.109039,0.28661 -0.197507,0.52376 l -8.6707301,0.0124 v -0.044 -0.044 c 0.070695,-0.18951 0.1129117,-0.30429 0.1481827,-0.40045 0.035271,-0.0962 0.063596,-0.17371 0.1065081,-0.28874 z" sodipodi:nodetypes="cccccccsc" /></g></g></g></svg>
