<?xml version="1.0" encoding="UTF-8" standalone="no"?><!-- Created with Inkscape (http://www.inkscape.org/) --><svg xmlns:dc="http://purl.org/dc/elements/1.1/" xmlns:cc="http://creativecommons.org/ns#" xmlns:rdf="http://www.w3.org/1999/02/22-rdf-syntax-ns#" xmlns:svg="http://www.w3.org/2000/svg" xmlns="http://www.w3.org/2000/svg" version="1.1" width="128" height="128" id="svg10210" viewBox="0 -23.4921245 74.196846 74.196846"><defs id="defs10212" /><metadata id="metadata10215"><rdf:RDF><cc:Work rdf:about=""><dc:format>image/svg+xml</dc:format><dc:type rdf:resource="http://purl.org/dc/dcmitype/StillImage" /><dc:title></dc:title></cc:Work></rdf:RDF></metadata><g transform="translate(-433.89597,-444.18108)" id="layer1"><g transform="matrix(0.03543307,0,0,0.03543307,229.65975,-454.57874)" id="g1410"><g id="id265"><path d="m 5764,26133 0,-570 c 0,-103 97,-198 203,-198 l 0,0 1688,0 c 105,0 203,95 203,198 l 0,0 0,570 -2094,0 z" id="path1413" style="fill:#ffffff;stroke:none" /></g></g><g transform="matrix(0.03543307,0,0,0.03543307,229.65975,-454.57874)" id="g1415"><g id="id266"><path d="m 7235,25445 -1268,0 c -64,0 -124,60 -124,119 l 0,0 0,491 1932,0 0,-491 c 0,-61 -61,-119 -122,-119 l 0,0 -418,0 z" id="path1418" style="fill:#515050;stroke:none" /></g></g><g transform="matrix(0.03543307,0,0,0.03543307,229.65975,-454.57874)" id="g1420"><g id="id267"><path d="m 5923,25975 0,-412 c 0,-16 26,-39 44,-39 l 0,0 1688,0 c 18,0 42,23 42,39 l 0,0 0,412 -1774,0 z" id="path1423" style="fill:#ffffff;stroke:none" /></g></g><g transform="matrix(0.03543307,0,0,0.03543307,229.65975,-454.57874)" id="g1425"><g id="id268"><path d="m 7484,25656 -186,0 0,133 52,0 0,53 81,0 0,-53 53,0 0,-133 z" id="path1428" style="fill:#515050;stroke:none" /></g></g><g transform="matrix(0.03543307,0,0,0.03543307,229.65975,-454.57874)" id="g1430"><g id="id269"><path d="m 7246,25656 -186,0 0,133 52,0 0,53 81,0 0,-53 53,0 0,-133 z" id="path1433" style="fill:#515050;stroke:none" /></g></g><g transform="matrix(0.03543307,0,0,0.03543307,229.65975,-454.57874)" id="g1435"><g id="id270"><path d="m 7008,25656 -186,0 0,133 52,0 0,53 81,0 0,-53 53,0 0,-133 z" id="path1438" style="fill:#515050;stroke:none" /></g></g><g transform="matrix(0.03543307,0,0,0.03543307,229.65975,-454.57874)" id="g1440"><g id="id271"><path d="m 6770,25656 -186,0 0,133 52,0 0,53 81,0 0,-53 53,0 0,-133 z" id="path1443" style="fill:#515050;stroke:none" /></g></g><g transform="matrix(0.03543307,0,0,0.03543307,229.65975,-454.57874)" id="g1445"><g id="id272"><path d="m 6161,25790 213,0 0,-81 -213,0 0,81 z" id="path1448" style="fill:#515050;stroke:none" /></g></g><g transform="matrix(0.03543307,0,0,0.03543307,229.65975,-454.57874)" id="g1450"><g id="id273"><path d="m 6028,25737 80,0 0,-81 -80,0 0,81 z" id="path1453" style="fill:#515050;stroke:none" /></g></g><g transform="matrix(0.03543307,0,0,0.03543307,229.65975,-454.57874)" id="g1455"><g id="id274"><path d="m 6028,25870 80,0 0,-81 -80,0 0,81 z" id="path1458" style="fill:#515050;stroke:none" /></g></g></g></svg>
